<svg xmlns="http://www.w3.org/2000/svg" viewBox="0 0 121.22 139.48"><defs><style>.cls-1{fill:#5f3074;}.cls-2{fill:#3e7f9c;}.cls-3{fill:#5cabc6;}.cls-4{fill:#534579;}.cls-5{fill:#f28d95;}.cls-6{fill:#f9e7bb;}.cls-7{fill:#fff;}.cls-8{fill:#9b2f44;}</style></defs><g id="Layer_2" data-name="Layer 2"><g id="Layer_1-2" data-name="Layer 1"><path class="cls-1" d="M67.73,25.72C67,22.34,64.41,20,62,20.56l-1.25.19-.45.06c-2.4.54-3.73,3.72-3,7.11s3.32,5.7,5.71,5.16l1.25-.19.45-.06C67.16,32.29,68.49,29.11,67.73,25.72Z"/><path class="cls-2" d="M99.18,112s.15,1.12.28,2.6c.23,2.52.41,6.08-.28,7-1.09,1.4-9.57,9.61-24.05,13.91s-37.85,4.7-40.52,2.67-4.67-7.53-4.67-7.53-18.66.89-25-7.7S-2.72,94.5,7.28,76.28,28.61,54.93,28.61,54.93c-.22-.24-2.6-3,0-8.1C32,40.16,42.65,36,42.65,36L61.4,34.93a22,22,0,0,1,13.73,7.28c4.83,5.53,4,9,3.51,10.11a1.65,1.65,0,0,1-.17.34s40.14,13.17,42.58,35S99.18,112,99.18,112Z"/><path class="cls-3" d="M78.64,52.32a59,59,0,0,1-18.91,7.47c-16.44,3.63-31.12-4.86-31.12-4.86-.22-.24-2.6-3,0-8.1C32,40.16,42.65,36,42.65,36L61.4,34.93a22,22,0,0,1,13.73,7.28C80,47.74,79.1,51.25,78.64,52.32Z"/><path class="cls-4" d="M45.37,48.35s-7.43-3.87-7-6.14S46,38.42,50.66,39.29s15.53,1,15.53,5c0,3.52-5,6.9-5,6.9l-10.52-3Z"/><path class="cls-5" d="M45.11,36.73l.26,11.62s2.17,3.3,9,3.7c5.08.3,6.83-.88,6.83-.88l-.84-5.88-.82-5.72L47.18,37.14Z"/><path d="M47.18,37.14a4,4,0,0,0,.36,1.11c2.73,5.75,9.87,6.85,12.8,7l-.82-5.72Z"/><path class="cls-5" d="M61.52,13S68,27.45,65.72,35.6,56.08,42.52,51.63,41a14.67,14.67,0,0,1-6.52-4.25,6.26,6.26,0,0,1-6.93-2.4c-2.8-3.83-1.12-8.27,1.24-9.3s5.18.66,5.18.66L42.37,21.5S51.5,0,61.52,13Z"/><path d="M61,31.46a.4.4,0,0,1-.15,0,.5.5,0,0,1-.33-.62c.82-2.64-1.16-5.51-1.18-5.54a.5.5,0,1,1,.81-.58c.1.13,2.29,3.3,1.33,6.41A.51.51,0,0,1,61,31.46Z"/><path d="M44,32.52a.48.48,0,0,1-.36-.16L39.69,28.2a.5.5,0,0,1,0-.71.49.49,0,0,1,.7,0l3.94,4.17a.49.49,0,0,1,0,.7A.47.47,0,0,1,44,32.52Z"/><path d="M39.82,31.4a.5.5,0,0,1-.08-1L42.47,30a.5.5,0,0,1,.57.42.51.51,0,0,1-.42.57l-2.73.41Z"/><path class="cls-6" d="M44.6,25.69A1.81,1.81,0,0,0,47.18,25c1.09-1.7-1.29-6.72-1.29-6.72s4.48,1,7.26-.47,4.13-5.56,4.13-5.56,2,4.25,8.16,2.38,7.29-10.2.75-11.9-10.1,1.19-10.1,1.19S55.26-2.16,47.18.83c-7.36,2.72-8.6,11.94-8.6,11.94a5.83,5.83,0,0,0-5.28,5c-.85,4.81,4.78,8.29,4.78,8.29A7.7,7.7,0,0,1,44.6,25.69Z"/><path d="M54.42,26.05a.5.5,0,0,1-.5-.43l-.34-2.7a.49.49,0,0,1,.43-.56.51.51,0,0,1,.56.43l.34,2.7a.49.49,0,0,1-.43.56Z"/><path d="M62.43,25.41a.51.51,0,0,1-.5-.43l-.39-2.69a.5.5,0,1,1,1-.14l.39,2.69a.51.51,0,0,1-.42.57Z"/><path d="M51.9,20.88a.68.68,0,0,1-.23-.05.51.51,0,0,1-.21-.68c1-1.93,3.44-1.43,3.54-1.4a.5.5,0,1,1-.21,1c-.07,0-1.8-.36-2.44.89A.51.51,0,0,1,51.9,20.88Z"/><path d="M59.73,19.21a.51.51,0,0,1-.29-.08.52.52,0,0,1-.13-.7,2.2,2.2,0,0,1,1.57-1,3.71,3.71,0,0,1,2.51.93.48.48,0,0,1,0,.7.49.49,0,0,1-.7.05A2.63,2.63,0,0,0,61,18.41a1.19,1.19,0,0,0-.86.59A.51.51,0,0,1,59.73,19.21Z"/><path class="cls-3" d="M107.14,91.21s5.69-3.12,6.58,4.69-1.9,14.46-8.89,16c-4.17.93-4.67-1.56-4.67-1.56Z"/><path class="cls-4" d="M110,108.78a.5.5,0,0,1-.34-.13l-4.27-3.92a.5.5,0,0,1,0-.71.51.51,0,0,1,.71,0l4.27,3.92a.51.51,0,0,1,0,.71A.54.54,0,0,1,110,108.78Z"/><path class="cls-4" d="M97.61,84.47h-.08a.49.49,0,0,1-.41-.27.5.5,0,0,1,0-.49c.27-.46,6.69-11.24,11.44-9.09a1.71,1.71,0,0,1,1.16,2.07C109,79.79,100.06,84.47,97.61,84.47Zm9.6-9.14c-2.92,0-6.79,5-8.67,8,3-.79,9.69-4.71,10.21-6.88.07-.29,0-.62-.6-.92A2.37,2.37,0,0,0,107.21,75.33Z"/><path class="cls-4" d="M94.77,83.2a.51.51,0,0,1-.5-.43c-1.12-8.22-8.62-17-8.7-17.11a.5.5,0,0,1,.76-.65c.32.37,7.77,9.11,8.93,17.62a.5.5,0,0,1-.43.57Z"/><path class="cls-5" d="M108.09,85.77s4.26,2.3,0,7.9-4.73-4-4.73-4Z"/><path class="cls-5" d="M93.48,102.22s-2.17,9.6,5.7,9.77,9-11,9-11Z"/><path class="cls-4" d="M113.69,100.11,107,99.67a.5.5,0,0,1,.07-1l6.7.44a.5.5,0,0,1,.47.53A.51.51,0,0,1,113.69,100.11Z"/><path class="cls-5" d="M61.93,96.46s11.4-12.74,16-13.63,14.83,3,14.62,4.29-10.24,1.16-10.24,1.16S86.23,98.81,86,101s-6.29,7.63-7.48,8.07-3.34-3.52-3.34-3.52a16.28,16.28,0,0,1-8.08,3.56c-4.44.41-8.24-6.87-8.24-6.87Z"/><rect class="cls-7" x="87.26" y="77.4" width="16.25" height="28.76" rx="2.26" transform="translate(46.95 -31.41) rotate(24.64)"/><rect class="cls-8" x="88.88" y="78.15" width="16.25" height="28.76" rx="2.26" transform="translate(47.41 -32.02) rotate(24.64)"/><path class="cls-5" d="M106.28,97.61s6.94.18,5.28-3.26-13.8-6.69-15.64-3.18S106.28,97.61,106.28,97.61Z"/><path class="cls-5" d="M104.74,103.14s6.94.19,5.29-3.25S96.23,93.2,94.39,96.7,104.74,103.14,104.74,103.14Z"/><path class="cls-5" d="M100.13,107.3a8.68,8.68,0,0,0,4.5,1c1.39-.11,2.67-.62,2.2-2.24-.92-3.25-11-7.91-13.15-5.14C92.09,103,97.35,105.93,100.13,107.3Z"/><path d="M108.09,97.07H108l-9.36-2a.5.5,0,0,1-.38-.6.49.49,0,0,1,.59-.38l9.36,2a.51.51,0,0,1,.39.6A.5.5,0,0,1,108.09,97.07Z"/><path d="M105.73,102.73l-.11,0-9.36-2a.49.49,0,0,1-.38-.59.51.51,0,0,1,.59-.39l9.36,2a.5.5,0,0,1-.1,1Z"/><path class="cls-3" d="M57.72,91.21s5.51-.73,6.44.57,4.73,19.22,1.92,20.14-5.47,1.85-5.47,1.85S53.73,107.27,57.72,91.21Z"/><path class="cls-3" d="M99.18,121.56c-1.09,1.4-9.57,9.61-24.05,13.91s-37.85,4.7-40.52,2.67-4.67-7.53-4.67-7.53,13.35,4.83,34.23.53A87.23,87.23,0,0,0,99.46,114.6C99.69,117.12,99.87,120.68,99.18,121.56Z"/><path class="cls-4" d="M53.4,61.58C38,60.72,32,57.19,31.77,57a.5.5,0,1,1,.52-.86c.05,0,6.06,3.56,21.14,4.4a.5.5,0,0,1,.47.53A.51.51,0,0,1,53.4,61.58Z"/><path class="cls-4" d="M53.82,79.11a.51.51,0,0,1-.5-.52l.43-12.48a.5.5,0,0,1,.51-.48.51.51,0,0,1,.49.52l-.43,12.48A.5.5,0,0,1,53.82,79.11Z"/><path class="cls-4" d="M74.16,75.33a.5.5,0,0,1-.43-.24L67.51,64.57a.51.51,0,0,1,.17-.69.51.51,0,0,1,.69.18l6.22,10.52a.5.5,0,0,1-.17.68A.48.48,0,0,1,74.16,75.33Z"/><path class="cls-4" d="M74.16,55.42a.49.49,0,0,1-.44-.26.5.5,0,0,1,.21-.68l4.3-2.27a.52.52,0,0,1,.68.21.51.51,0,0,1-.21.68l-4.3,2.27A.52.52,0,0,1,74.16,55.42Z"/><path class="cls-4" d="M57.46,91.5l-.15,0c-.14,0-14.54-4.27-35.57-2.44a.5.5,0,0,1-.08-1c21.22-1.84,35.8,2.44,35.94,2.48a.5.5,0,0,1,.33.62A.49.49,0,0,1,57.46,91.5Z"/><path class="cls-4" d="M31.87,88.58a.54.54,0,0,1-.22,0c-.86-.41-8.43-4.08-8.76-7.22a2.16,2.16,0,0,1,.95-2,2.52,2.52,0,0,1,2.33-.47c3.3,1,6,8.71,6.17,9a.52.52,0,0,1-.14.54A.51.51,0,0,1,31.87,88.58Zm-6.43-8.82a1.65,1.65,0,0,0-1,.37,1.13,1.13,0,0,0-.56,1.08c.19,1.87,4.45,4.48,7.05,5.84-1-2.52-3.08-6.63-5.06-7.22A1.75,1.75,0,0,0,25.44,79.76Z"/><path d="M78.82,106H75.13a.51.51,0,0,1-.48-.34.5.5,0,0,1,.19-.56l3.3-2.39a.51.51,0,0,1,.7.11.5.5,0,0,1-.12.7l-2,1.48h2.15a.5.5,0,0,1,.5.5A.5.5,0,0,1,78.82,106Z"/><path d="M82.35,88.78h-6a.5.5,0,0,1,0-1h6a.5.5,0,0,1,0,1Z"/><path class="cls-4" d="M42.59,139.48a.51.51,0,0,1-.47-.32l-2.4-6.06a.5.5,0,0,1,.28-.64.49.49,0,0,1,.65.28l2.4,6a.5.5,0,0,1-.28.65A.58.58,0,0,1,42.59,139.48Z"/><path class="cls-4" d="M48.87,139.48a.5.5,0,0,1-.49-.38l-1.59-6a.5.5,0,0,1,.36-.61.5.5,0,0,1,.61.35l1.59,6.06a.5.5,0,0,1-.36.61Z"/><path class="cls-4" d="M96.36,124.39a.5.5,0,0,1-.5-.49l-.16-6.45a.52.52,0,0,1,.49-.51.49.49,0,0,1,.51.49l.16,6.45a.51.51,0,0,1-.49.51Z"/><path class="cls-4" d="M91,128.39a.5.5,0,0,1-.5-.5v-6.84a.5.5,0,0,1,.5-.5.51.51,0,0,1,.5.5v6.84A.51.51,0,0,1,91,128.39Z"/><path class="cls-4" d="M58.37,109.66a.49.49,0,0,1-.49-.41.51.51,0,0,1,.41-.58l8.25-1.37a.5.5,0,1,1,.16,1l-8.24,1.38Z"/><path class="cls-4" d="M57,104.13a.5.5,0,0,1-.08-1l9-1.51a.5.5,0,0,1,.57.41.49.49,0,0,1-.41.58l-9,1.5Z"/><path class="cls-4" d="M29.94,131.11a.51.51,0,0,1-.5-.42.5.5,0,0,1,.41-.57c20.29-3.58,30.26-16.52,30.36-16.65a.5.5,0,1,1,.8.6c-.1.14-10.31,13.39-31,17Z"/><path class="cls-1" d="M47.79,30c.44,3.45-1.17,6.49-3.61,6.8S39.42,34.54,39,31.09s1.18-6.48,3.61-6.8S47.35,26.52,47.79,30Z"/><polygon class="cls-1" points="42.59 24.29 40.9 24.63 42.5 37.1 44.18 36.76 46.02 34.78 46.56 27.87 42.59 24.29"/><path class="cls-7" d="M46.11,30.3c.44,3.45-1.18,6.49-3.61,6.8s-4.77-2.22-5.21-5.67,1.17-6.48,3.61-6.8S45.67,26.86,46.11,30.3Z"/><path class="cls-7" d="M39.68,8.85A13.58,13.58,0,0,0,37.3,13c-.53,2,2.52,14.35,2.52,14.35l3.85-.88Z"/><path d="M57.53,35.54A4.37,4.37,0,0,1,54,33.41a.49.49,0,0,1,.17-.68.51.51,0,0,1,.69.17,3.22,3.22,0,0,0,3.4,1.54.5.5,0,0,1,.25,1A3.7,3.7,0,0,1,57.53,35.54Z"/></g></g></svg>