<svg xmlns="http://www.w3.org/2000/svg" viewBox="0 0 118.64 229.43"><defs><style>.cls-1,.cls-6{fill:#a396ff;}.cls-2,.cls-4{fill:#fff;}.cls-3,.cls-5{fill:#040078;}.cls-3,.cls-6{opacity:0.5;}.cls-4{font-size:5.05px;font-family:D-DIN, D DIN;}.cls-7{fill:#eaeaea;}</style></defs><g id="Layer_2" data-name="Layer 2"><g id="OBJECTS"><rect class="cls-1" x="3.33" y="2.2" width="111.99" height="222.77" rx="7.75"/><rect class="cls-2" x="3.33" y="21.89" width="111.99" height="183.39"/><path class="cls-2" d="M78,211.88l.53-.52-.7-.7-.52.53a2.88,2.88,0,0,0-1-.42V210h-1v.74a2.66,2.66,0,0,0-1,.43l-.52-.52-.71.7.52.52a2.9,2.9,0,0,0-.43,1h-.74v1h.74a2.46,2.46,0,0,0,.42,1l-.53.53.7.69.53-.52a2.58,2.58,0,0,0,1,.41v.74h1v-.74a2.76,2.76,0,0,0,1-.43l.53.52.7-.71-.52-.52a2.62,2.62,0,0,0,.43-1h.74v-1h-.75A2.46,2.46,0,0,0,78,211.88Zm-1.11,2.64a1.59,1.59,0,0,1-2.24,0,1.57,1.57,0,0,1,0-2.24,1.59,1.59,0,0,1,2.24,0A1.57,1.57,0,0,1,76.84,214.52Z"/><polygon class="cls-2" points="89.44 210.62 89.41 214.72 92.18 214.73 93.89 216.21 93.91 214.75 95.93 214.76 95.97 210.67 89.44 210.62"/><polygon class="cls-3" points="56 213.02 56 216.67 58.01 216.67 58.01 214.64 60.03 214.64 60.03 216.67 62.03 216.67 62.03 213.02 59.02 210.16 56 213.02"/><polygon class="cls-2" points="26.95 212.35 25.94 210.31 24.93 212.35 22.68 212.68 24.31 214.27 23.92 216.51 25.94 215.45 27.95 216.51 27.57 214.27 29.2 212.68 26.95 212.35"/><rect class="cls-2" x="39.49" y="213.73" width="1.57" height="2.47"/><rect class="cls-2" x="41.82" y="212.11" width="1.57" height="4.08"/><rect class="cls-2" x="44.14" y="210.63" width="1.57" height="5.56"/><text class="cls-4" transform="translate(9.65 14.92)">9:10</text><rect class="cls-2" x="89.8" y="13.3" width="1.1" height="2.02"/><rect class="cls-2" x="91.27" y="12.79" width="1.1" height="2.53"/><rect class="cls-2" x="92.74" y="12.29" width="1.1" height="3.03"/><path class="cls-2" d="M97.45,14.81l.18.47a2.81,2.81,0,0,1,2,0c.06-.15.13-.31.19-.47A3.29,3.29,0,0,0,97.45,14.81Z"/><path class="cls-2" d="M96.69,13.8l.18.47a4.81,4.81,0,0,1,3.54,0c.06-.15.12-.31.19-.47A5.38,5.38,0,0,0,96.69,13.8Z"/><path class="cls-2" d="M96.18,12.79l.19.47a6.17,6.17,0,0,1,4.55,0l.18-.47A6.74,6.74,0,0,0,96.18,12.79Z"/><rect class="cls-2" x="103.44" y="12.79" width="5.05" height="2.02"/><rect class="cls-2" x="107.99" y="13.3" width="1.01" height="1.01"/><path class="cls-1" d="M17.85,37.35H19V40H21.7V37.35h1.18V44H21.7V41H19V44H17.85Z"/><path class="cls-1" d="M24.56,37.35h1.18V44H24.56Z"/><path class="cls-1" d="M27.05,45.18a1.39,1.39,0,0,0,1-1.26L28,43l.45.73A.66.66,0,0,1,28,44a.71.71,0,0,1-.76-.72.73.73,0,0,1,.78-.72c.56,0,.87.45.87,1.2a2.17,2.17,0,0,1-1.57,2.11Z"/><path class="cls-1" d="M32.23,37.35h1.33l1.17,3.23c.15.42.28.87.43,1.3h0c.14-.43.27-.88.42-1.3l1.14-3.23h1.33V44H37v-3c0-.61.1-1.49.15-2.11h0l-.53,1.54-1.09,3h-.7l-1.09-3-.53-1.54h0c.06.62.15,1.5.15,2.11v3H32.23Z"/><path class="cls-1" d="M41.07,37.35h1.38L44.61,44H43.37l-1-3.52c-.21-.71-.41-1.46-.6-2.19h0c-.19.73-.38,1.48-.59,2.19l-1,3.52h-1.2Zm-.88,3.9h3.12v.93H40.19Z"/><path class="cls-1" d="M45.37,37.35H47.6c1.38,0,2.44.48,2.44,2S49,41.38,47.6,41.38H46.54V44H45.37Zm2.11,3.09c.91,0,1.4-.38,1.4-1.13s-.49-1-1.4-1h-.94v2.15Zm-.1.63.85-.7L50.3,44H49Z"/><path class="cls-1" d="M51.36,37.35h1.18v3h0l2.36-3h1.3l-2,2.58,2.39,4h-1.3l-1.79-3.12-1,1.19V44H51.36Z"/><path class="cls-1" d="M57.41,43.31a.75.75,0,1,1,1.5,0,.75.75,0,1,1-1.5,0Zm.2-5,0-1.15h1.18l0,1.15-.16,3.46h-.78Z"/><path class="cls-1" d="M101.21,64.37H17.43a7.61,7.61,0,0,1-7.61-7.61h0a7.62,7.62,0,0,1,7.61-7.62h83.78a7.62,7.62,0,0,1,7.62,7.62h0A7.62,7.62,0,0,1,101.21,64.37Z"/><path class="cls-5" d="M101.21,49.14h-.86a7.62,7.62,0,0,0-7.61,7.62h0a7.61,7.61,0,0,0,7.61,7.61h.86a7.62,7.62,0,0,0,7.62-7.61h0A7.62,7.62,0,0,0,101.21,49.14Z"/><path class="cls-2" d="M17.11,59.42l.69-.8a2.59,2.59,0,0,0,1.72.75c.75,0,1.16-.34,1.16-.85s-.43-.72-1-1l-.9-.39a1.89,1.89,0,0,1-1.34-1.76,2,2,0,0,1,2.22-1.87,2.89,2.89,0,0,1,2,.85l-.6.74a2.17,2.17,0,0,0-1.44-.57c-.63,0-1,.3-1,.78s.51.72,1.06.94l.89.38a1.82,1.82,0,0,1,1.34,1.78,2.1,2.1,0,0,1-2.38,2A3.41,3.41,0,0,1,17.11,59.42Z"/><path class="cls-2" d="M23.09,53.65h4v1H24.26v1.7h2.38v1H24.26v2h2.92v1H23.09Z"/><path class="cls-2" d="M29.83,53.65h1.38l2.16,6.62H32.13l-1-3.52c-.21-.71-.41-1.46-.6-2.19h0c-.19.73-.38,1.48-.59,2.19l-1,3.52h-1.2ZM29,57.55h3.12v.93H29Z"/><path class="cls-2" d="M34.12,53.65h2.24c1.38,0,2.44.48,2.44,2s-1.06,2.07-2.44,2.07H35.3v2.59H34.12Zm2.12,3.09c.9,0,1.4-.38,1.4-1.13s-.5-1-1.4-1H35.3v2.15Zm-.1.63.85-.7,2.07,3.6H37.74Z"/><path class="cls-2" d="M39.77,57c0-2.17,1.36-3.46,3-3.46a2.65,2.65,0,0,1,1.91.84l-.63.76a1.74,1.74,0,0,0-1.26-.58c-1.08,0-1.85.92-1.85,2.4s.71,2.43,1.82,2.43a1.88,1.88,0,0,0,1.42-.68l.63.74a2.66,2.66,0,0,1-2.09,1C41.09,60.39,39.77,59.17,39.77,57Z"/><path class="cls-2" d="M46,53.65h1.18v2.66h2.68V53.65H51v6.62H49.81V57.33H47.13v2.94H46Z"/><path class="cls-2" d="M100.84,58.84A2.67,2.67,0,0,1,99,54.29a2.67,2.67,0,1,1,3.77,3.77h0A2.65,2.65,0,0,1,100.84,58.84Zm0-4.31A1.65,1.65,0,1,0,102,55,1.64,1.64,0,0,0,100.84,54.53Zm1.52,3.17h0Z"/><path class="cls-2" d="M97.52,60a.54.54,0,0,1-.36-.14.51.51,0,0,1,0-.72l1.43-1.44a.51.51,0,0,1,.72.72l-1.43,1.44A.54.54,0,0,1,97.52,60Z"/><path class="cls-6" d="M22,96.34H96.63a11.11,11.11,0,0,1,11.11,11.11v66.89a0,0,0,0,1,0,0H10.9a0,0,0,0,1,0,0V107.46A11.11,11.11,0,0,1,22,96.34Z" transform="translate(118.64 270.7) rotate(180)"/><path class="cls-5" d="M22.25,77.14H96.4a11.34,11.34,0,0,1,11.34,11.34v7.64a0,0,0,0,1,0,0H10.9a0,0,0,0,1,0,0V88.48A11.34,11.34,0,0,1,22.25,77.14Z"/><path class="cls-2" d="M22.05,84.24h2.12c1.36,0,2.36.42,2.36,1.63a1.49,1.49,0,0,1-.92,1.44v0a1.51,1.51,0,0,1,1.27,1.57c0,1.33-1.08,2-2.54,2H22.05Zm2,2.74c.93,0,1.32-.37,1.32-.94s-.44-.88-1.29-.88h-.87V87Zm.16,3c1,0,1.51-.35,1.51-1.09s-.53-1-1.51-1h-1V90Z"/><path class="cls-2" d="M29.39,84.24h1.38l2.16,6.63H31.68l-1-3.53c-.21-.7-.4-1.46-.6-2.18h0c-.18.73-.37,1.48-.58,2.18l-1,3.53h-1.2Zm-.88,3.91h3.12v.92H28.51Z"/><path class="cls-2" d="M33.68,84.24h1.18v5.64h2.75v1H33.68Z"/><path class="cls-2" d="M40,84.24h1.38l2.16,6.63H42.34l-1-3.53c-.21-.7-.41-1.46-.6-2.18h0c-.18.73-.38,1.48-.59,2.18l-1,3.53h-1.2Zm-.88,3.91h3.12v.92H39.16Z"/><path class="cls-2" d="M44.34,84.24h1.2L47.6,88l.69,1.42h0c-.06-.69-.15-1.52-.15-2.26V84.24H49.3v6.63H48.09L46,87.14l-.68-1.41h0c0,.7.14,1.5.14,2.23v2.91H44.34Z"/><path class="cls-2" d="M50.63,87.57c0-2.16,1.36-3.45,3-3.45a2.65,2.65,0,0,1,1.91.84l-.63.75a1.73,1.73,0,0,0-1.26-.57c-1.08,0-1.85.91-1.85,2.4S52.55,90,53.66,90a1.88,1.88,0,0,0,1.42-.68l.62.73a2.6,2.6,0,0,1-2.08,1C52,91,50.63,89.77,50.63,87.57Z"/><path class="cls-2" d="M56.81,84.24h4v1H58v1.7h2.38v1H58v2H60.9v1H56.81Z"/><polygon class="cls-2" points="99.23 89.71 97.65 86.56 100.8 86.56 99.23 89.71"/><path class="cls-2" d="M21.63,113.35l.49-.72a3,3,0,0,0,2,.84,1.25,1.25,0,0,0,1.42-1.31c0-2-3.55-1.61-3.55-4.08a2.11,2.11,0,0,1,2.27-2.14,2.76,2.76,0,0,1,2.13,1l-.56.62a2,2,0,0,0-1.54-.72A1.17,1.17,0,0,0,23,108c0,1.85,3.54,1.34,3.54,4.06a2.2,2.2,0,0,1-2.44,2.24A3.85,3.85,0,0,1,21.63,113.35Zm2.16-8.65h.77v1.63h-.77Zm0,9.27h.77v1.61h-.77Z"/><path class="cls-2" d="M27.93,113.48l.58-.65a1.79,1.79,0,0,0,1.33.64c1.17,0,2.14-.93,2.14-3.64,0-2-.65-3.07-1.81-3.07-.79,0-1.4.71-1.4,1.78s.49,1.71,1.49,1.71A2.2,2.2,0,0,0,32,109.11l0,.82A2.6,2.6,0,0,1,30.09,111a2.19,2.19,0,0,1-2.31-2.5,2.44,2.44,0,0,1,2.39-2.6c1.6,0,2.79,1.3,2.79,3.89,0,3.25-1.47,4.5-3.08,4.5A2.57,2.57,0,0,1,27.93,113.48Z"/><path class="cls-2" d="M33.89,113.23l.52-.69a2.74,2.74,0,0,0,2,.93,1.74,1.74,0,0,0,1.77-1.85,1.63,1.63,0,0,0-1.72-1.77,2.27,2.27,0,0,0-1.39.49l-.55-.35.27-3.89h4V107H35.74l-.21,2.4a2.46,2.46,0,0,1,1.24-.33,2.32,2.32,0,0,1,2.5,2.53,2.64,2.64,0,0,1-2.72,2.74A3.55,3.55,0,0,1,33.89,113.23Z"/><path class="cls-2" d="M40.49,110.45c0-3.26,1.47-4.51,3.08-4.51a2.56,2.56,0,0,1,2,.86l-.58.65a1.76,1.76,0,0,0-1.33-.64c-1.16,0-2.13.92-2.13,3.64,0,2,.64,3.06,1.8,3.06.8,0,1.41-.7,1.41-1.77s-.5-1.72-1.5-1.72a2.23,2.23,0,0,0-1.74,1.15l0-.83a2.57,2.57,0,0,1,1.95-1.1,2.19,2.19,0,0,1,2.3,2.5,2.43,2.43,0,0,1-2.38,2.59C41.69,114.33,40.49,113,40.49,110.45Z"/><path class="cls-2" d="M46.78,115.72a1.71,1.71,0,0,0,1.15-1.57l-.12-.94.51.77a.65.65,0,0,1-.52.21.7.7,0,0,1-.76-.72.73.73,0,0,1,.78-.73c.55,0,.88.46.88,1.22A2.53,2.53,0,0,1,47,116.34Z"/><path class="cls-2" d="M49.9,110.11c0-2.71,1-4.17,2.59-4.17s2.59,1.46,2.59,4.17-1,4.22-2.59,4.22S49.9,112.82,49.9,110.11Zm4.17,0c0-2.37-.64-3.33-1.58-3.33s-1.58,1-1.58,3.33.64,3.38,1.58,3.38S54.07,112.48,54.07,110.11Z"/><path class="cls-2" d="M56.2,110.11c0-2.71,1-4.17,2.59-4.17s2.6,1.46,2.6,4.17-1,4.22-2.6,4.22S56.2,112.82,56.2,110.11Zm4.17,0c0-2.37-.64-3.33-1.58-3.33s-1.58,1-1.58,3.33.64,3.38,1.58,3.38S60.37,112.48,60.37,110.11Z"/><polygon class="cls-3" points="16.98 166.89 101.94 166.89 101.94 151.64 85.1 157 70.55 142.25 59.6 130.6 34.96 158.56 16.98 137.23 16.98 166.89"/><path class="cls-5" d="M34.84,163.32a.49.49,0,0,1-.28-.09l-18-11.84a.5.5,0,1,1,.55-.84l17.7,11.65,14-10.3a.51.51,0,0,1,.52-.05l18.88,9.42L84.54,147.8a.47.47,0,0,1,.32-.12l16.93-.15h0a.5.5,0,0,1,0,1L85,148.69l-16.4,13.57a.48.48,0,0,1-.54.06L49.2,152.9,35.14,163.22A.54.54,0,0,1,34.84,163.32Z"/><path class="cls-5" d="M22,186.46H96.63a11.11,11.11,0,0,1,11.11,11.11v7.87a0,0,0,0,1,0,0H10.9a0,0,0,0,1,0,0v-7.87A11.11,11.11,0,0,1,22,186.46Z"/><path class="cls-2" d="M22.05,193.57h2.12c1.36,0,2.36.41,2.36,1.63a1.48,1.48,0,0,1-.92,1.43v0a1.53,1.53,0,0,1,1.27,1.58c0,1.32-1.08,1.94-2.54,1.94H22.05Zm2,2.73c.93,0,1.32-.36,1.32-.94s-.44-.88-1.29-.88h-.87v1.82Zm.16,3c1,0,1.51-.35,1.51-1.1s-.53-1-1.51-1h-1v2.1Z"/><path class="cls-2" d="M29.39,193.57h1.38l2.16,6.62H31.68l-1-3.53c-.21-.7-.4-1.45-.6-2.18h0c-.18.73-.37,1.48-.58,2.18l-1,3.53h-1.2Zm-.88,3.9h3.12v.93H28.51Z"/><path class="cls-2" d="M33.68,193.57h1.18v5.63h2.75v1H33.68Z"/><path class="cls-2" d="M40,193.57h1.38l2.16,6.62H42.34l-1-3.53c-.21-.7-.41-1.45-.6-2.18h0c-.18.73-.38,1.48-.59,2.18l-1,3.53h-1.2Zm-.88,3.9h3.12v.93H39.16Z"/><path class="cls-2" d="M44.34,193.57h1.2l2.06,3.72.69,1.41h0c-.06-.68-.15-1.52-.15-2.26v-2.87H49.3v6.62H48.09L46,196.46l-.68-1.41h0c0,.7.14,1.5.14,2.24v2.9H44.34Z"/><path class="cls-2" d="M50.63,196.9c0-2.17,1.36-3.46,3-3.46a2.65,2.65,0,0,1,1.91.84L55,195a1.74,1.74,0,0,0-1.26-.58c-1.08,0-1.85.92-1.85,2.4s.71,2.43,1.82,2.43a1.88,1.88,0,0,0,1.42-.68l.62.74a2.63,2.63,0,0,1-2.08,1C52,200.31,50.63,199.09,50.63,196.9Z"/><path class="cls-2" d="M56.81,193.57h4v1H58v1.7h2.38v1H58v2H60.9v1H56.81Z"/><polygon class="cls-2" points="99.23 199.04 97.65 195.89 100.8 195.89 99.23 199.04"/><path class="cls-7" d="M107.57,0H11.08A11.08,11.08,0,0,0,0,11.08V218.35a11.08,11.08,0,0,0,11.08,11.08h96.49a11.08,11.08,0,0,0,11.07-11.08V11.08A11.08,11.08,0,0,0,107.57,0Zm6.79,218.35a6.8,6.8,0,0,1-6.79,6.79H11.08a6.8,6.8,0,0,1-6.79-6.79V11.08a6.79,6.79,0,0,1,6.79-6.79H29.17v0A6.83,6.83,0,0,0,36,11.17H82.64a6.83,6.83,0,0,0,6.83-6.84v0h18.1a6.8,6.8,0,0,1,6.79,6.79Z"/></g></g></svg>